2.8Hzhigh3min_grf.mot
version=1
nRows=30
nColumns 19
inDegrees=yes
endheader
time	1_ground_force_vx	1_ground_force_vy	1_ground_force_vz	1_ground_force_px	1_ground_force_py	1_ground_force_pz	1_ground_torque_x	1_ground_torque_y	1_ground_torque_z	2_ground_force_vx	2_ground_force_vy	2_ground_force_vz	2_ground_force_px	2_ground_force_py	2_ground_force_pz	2_ground_torque_x	2_ground_torque_y	2_ground_torque_z
            3.751500	            1.543340	           31.563309	           -3.720497	           -0.261479	            0.006155	           -0.390670	           -0.005161	           -0.105541	            0.012441	            5.955479	           91.122537	           15.339567	           -0.267661	            0.005695	           -0.747498	            0.000965	            0.014765	            0.002486
            3.752000	            1.911063	           29.939809	           -3.453228	           -0.253087	            0.006176	           -0.395214	           -0.007186	           -0.112588	            0.012986	            6.288622	           89.651539	           15.052603	           -0.267659	            0.005698	           -0.748365	            0.002809	            0.040051	            0.006725
            3.752500	            1.681623	           28.678691	           -3.641494	           -0.254926	            0.006141	           -0.387203	           -0.005951	           -0.101487	            0.012886	            5.878730	           86.337020	           14.571674	           -0.269051	            0.005690	           -0.747470	            0.003933	            0.057764	            0.009749
            3.753000	            1.819283	           27.957655	           -3.644927	           -0.256686	            0.006113	           -0.380592	           -0.007580	           -0.116482	            0.015186	            6.028544	           83.759786	           14.468559	           -0.267688	            0.005693	           -0.747068	            0.003380	            0.046960	            0.008112
            3.753500	            1.727651	           25.795039	           -3.791542	           -0.256128	            0.006141	           -0.387071	           -0.009611	           -0.143499	            0.021093	            5.891317	           82.838529	           14.465334	           -0.267579	            0.005699	           -0.748622	            0.001638	            0.023036	            0.004023
            3.754000	            1.590888	           24.712436	           -3.566559	           -0.246327	            0.006117	           -0.381247	           -0.013661	           -0.212205	            0.030626	            5.856328	           79.524527	           14.218886	           -0.268771	            0.005692	           -0.747694	            0.000261	            0.003548	            0.000634
            3.754500	            1.637647	           22.187939	           -3.394071	           -0.251818	            0.006144	           -0.387609	           -0.013225	           -0.179180	            0.027409	            5.816809	           77.498567	           14.258606	           -0.268226	            0.005694	           -0.747889	           -0.001027	           -0.013682	           -0.002517
            3.755000	            1.454344	           20.565905	           -3.492284	           -0.249501	            0.006139	           -0.386485	           -0.014976	           -0.211776	            0.035962	            5.872984	           74.920492	           14.296316	           -0.269244	            0.005688	           -0.747180	           -0.000016	           -0.000208	           -0.000040
            3.755500	            1.776647	           19.121876	           -3.040705	           -0.245659	            0.006145	           -0.387613	           -0.016510	           -0.177694	            0.028256	            5.457817	           73.078825	           13.914500	           -0.269620	            0.005690	           -0.748102	           -0.001187	           -0.015888	           -0.003025
            3.756000	            1.685077	           17.860195	           -3.091744	           -0.253058	            0.006125	           -0.383346	           -0.015455	           -0.163806	            0.028356	            5.703180	           69.950648	           13.480877	           -0.269914	            0.005682	           -0.746168	           -0.002129	           -0.026119	           -0.005034
            3.756500	            1.548072	           16.237384	           -3.006648	           -0.251738	            0.006164	           -0.392320	           -0.013006	           -0.136419	            0.025260	            5.799435	           69.215230	           13.243568	           -0.269824	            0.005693	           -0.749012	           -0.000595	           -0.007104	           -0.001359
            3.757000	            1.547617	           16.238171	           -3.190072	           -0.246578	            0.006099	           -0.376892	           -0.017449	           -0.183085	            0.035968	            5.622087	           66.451667	           13.421505	           -0.269885	            0.005694	           -0.749487	           -0.002886	           -0.034110	           -0.006889
            3.757500	            1.502687	           14.975123	           -2.920233	           -0.239507	            0.006078	           -0.371668	           -0.022207	           -0.221310	            0.043157	            5.397828	           63.688421	           13.458676	           -0.269994	            0.005688	           -0.747918	           -0.003842	           -0.045333	           -0.009580
            3.758000	            1.181951	           14.073732	           -2.923301	           -0.242682	            0.006120	           -0.381647	           -0.019944	           -0.237472	            0.049326	            5.494830	           62.768185	           13.408423	           -0.270899	            0.005694	           -0.750529	           -0.002599	           -0.029693	           -0.006343
            3.758500	            1.229064	           13.350712	           -2.467948	           -0.232471	            0.006042	           -0.363148	           -0.020232	           -0.219765	            0.040625	            5.317338	           60.005786	           13.257863	           -0.271306	            0.005681	           -0.747377	           -0.005297	           -0.059779	           -0.013208
            3.759000	            1.091439	           12.630016	           -2.562410	           -0.240026	            0.006032	           -0.360959	           -0.023580	           -0.272861	            0.055359	            5.273085	           59.269525	           13.114470	           -0.268396	            0.005699	           -0.749296	            0.004849	            0.054501	            0.012059
            3.759500	            1.046099	           12.989556	           -2.331471	           -0.235941	            0.005978	           -0.348193	           -0.018392	           -0.228382	            0.040992	            5.096717	           56.140503	           12.493314	           -0.269373	            0.005692	           -0.748285	            0.004233	            0.046626	            0.010376
            3.760000	            1.276491	           10.284435	           -2.068499	           -0.224916	            0.006075	           -0.370532	           -0.026282	           -0.211749	            0.042589	            5.336262	           54.668330	           12.441030	           -0.271320	            0.005692	           -0.750297	           -0.005848	           -0.059908	           -0.013633
            3.760500	            1.276491	           10.284435	           -2.068499	           -0.220275	            0.006024	           -0.358290	           -0.031741	           -0.255730	            0.051435	            5.392355	           52.090924	           12.291027	           -0.270735	            0.005692	           -0.749774	           -0.005607	           -0.054163	           -0.012780
            3.761000	            1.138866	            9.563739	           -2.162961	           -0.233013	            0.005581	           -0.255695	            0.857789	           -0.369523	            0.138805	            5.255773	           50.985694	           12.240216	           -0.269747	            0.005696	           -0.749784	           -0.004897	           -0.047504	           -0.011404
            3.761500	            0.956390	            9.021530	           -1.843834	           -0.233013	            0.005581	           -0.255695	            0.863476	           -0.333105	            0.243936	            5.403613	           48.960738	           12.186001	           -0.270282	            0.005698	           -0.751035	           -0.010460	           -0.094772	           -0.023588
            3.762000	            0.773847	            8.839853	           -1.523160	           -0.233013	            0.005581	           -0.255695	            0.831061	           -0.305374	            0.217525	            5.178627	           46.382150	           12.083046	           -0.270217	            0.005692	           -0.749154	           -0.004839	           -0.043340	           -0.011291
            3.762500	            0.866267	            7.937559	           -1.297973	           -0.233013	            0.005581	           -0.255695	            0.803007	           -0.295924	            0.183980	            5.185232	           44.541001	           11.982619	           -0.270123	            0.005687	           -0.747757	           -0.004272	           -0.036695	           -0.009872
            3.763000	            0.362776	            7.395485	           -1.023905	           -0.233013	            0.005581	           -0.255695	            0.622569	           -0.268370	            0.144265	            5.383039	           41.597146	           11.455817	           -0.273177	            0.005675	           -0.747359	           -0.015167	           -0.117205	           -0.032278
            3.763500	            0.500515	            8.115985	           -0.883586	           -0.233013	            0.005581	           -0.255695	            0.635257	           -0.250216	            0.244141	            5.385574	           40.861557	           11.171620	           -0.273297	            0.005685	           -0.750257	           -0.009502	           -0.072091	           -0.019710
            3.764000	            0.639200	            7.393179	           -0.474316	           -0.233013	            0.005581	           -0.255695	            0.674357	           -0.231483	            0.212418	            5.295739	           39.757333	           10.886149	           -0.272301	            0.005689	           -0.750426	           -0.014288	           -0.107262	           -0.029370
            3.764500	            0.594660	            6.489876	           -0.019508	           -0.233013	            0.005581	           -0.255695	            0.504964	           -0.203387	            0.117046	            5.301494	           38.101839	           10.364026	           -0.273214	            0.005686	           -0.750683	           -0.011840	           -0.085095	           -0.023146
            3.765000	            0.503738	            6.668748	            0.302484	           -0.233013	            0.005581	           -0.255695	            0.472528	           -0.249883	            0.169405	            5.261496	           36.258513	           10.826757	           -0.274541	            0.005683	           -0.750975	           -0.024628	           -0.169717	           -0.050677
            3.765500	            0.183584	            7.568441	            0.673992	           -0.233013	            0.005581	           -0.255695	            0.475404	           -0.176714	            0.306381	            4.849049	           33.679751	           10.583097	           -0.275082	            0.005674	           -0.749016	           -0.021566	           -0.149789	           -0.047068
            3.766000	            0.412394	            6.668140	            0.440279	           -0.233013	            0.005581	           -0.255695	            0.504371	           -0.185532	            0.240885	            5.040416	           32.575705	           10.532146	           -0.275359	            0.005673	           -0.749066	           -0.022801	           -0.147358	           -0.047643
